<svg xmlns="http://www.w3.org/2000/svg" viewBox="-6 0 288 112" width="1168" height="448">
  <defs>
    <linearGradient id="mg" x1="0" y1="0" x2="0.35" y2="1"><stop offset="0" stop-color="#bae6fd"/><stop offset=".45" stop-color="#7dd3fc"/><stop offset="1" stop-color="#3b9af6"/></linearGradient>
    <clipPath id="oc"><circle cx="50" cy="50" r="50"/></clipPath>
  </defs>
  <g font-family="Geist, 'Helvetica Neue', Helvetica, Arial, sans-serif" font-weight="700" font-size="100" fill="#121114" letter-spacing="-3">
    <text x="0" y="90">B</text>
    <text x="137" y="90">bie</text>
  </g>
  <g transform="translate(73 27) scale(.65)">
    <g clip-path="url(#oc)"><circle cx="50" cy="50" r="50" fill="#e0f2fe"/><g transform="translate(50 58) scale(1.02) translate(-50 -50)">
    
    <!-- oreilles pointues, bouts arrondis -->
    <path d="M24 50 Q13 25 17 14 Q19 9 24 12 Q37 21 46 34 Z" fill="url(#mg)"/>
    <path d="M76 50 Q87 25 83 14 Q81 9 76 12 Q63 21 54 34 Z" fill="url(#mg)"/>
    <!-- tête ronde -->
    <path d="M13 106 L13 67 A37 37 0 0 1 87 67 L87 106 Z" fill="url(#mg)"/>
    <!-- arceau posé sur la tête -->
    <path d="M9 61 C7 33 29 20 53 21 C75 22 93 35 91 59 L84 61 C84 40 69 29.5 50 29 C31 29.5 17 39 17.5 61 Z" fill="#121114"/>
    <!-- gros écouteurs -->
    <rect x="2.5" y="44.5" width="22" height="33" rx="11" fill="#121114" transform="rotate(-9 13.5 61)"/>
    <rect x="76.5" y="48" width="20" height="29" rx="9.5" fill="#121114" transform="rotate(7 86.5 62.5)"/>
    <!-- yeux -->
    <ellipse cx="38" cy="62" rx="11" ry="12" fill="#fff"/>
    <ellipse cx="62" cy="62" rx="11" ry="12" fill="#fff"/>
    <circle cx="39.5" cy="60.5" r="6.5" fill="#121114"/>
    <circle cx="63.5" cy="60.5" r="6.5" fill="#121114"/>
    <!-- écran vu de dos -->
    <rect x="11" y="69" width="78" height="42" rx="9" fill="#121114"/>
    <!-- poire façon logo d'ordinateur -->
    <g transform="translate(50 86) scale(.8) translate(-50 -87)">
      <path d="M50 77 C46 77 45 81 45.5 83 C46 85 42 86.5 42 91 C42 95.5 46 98 50 98 C54 98 58 95.5 58 91 C58 86.5 54 85 54.5 83 C55 81 54 77 50 77 Z" fill="url(#mg)"/>
      <path d="M50 77.5 Q50.3 74.5 51.8 72.8" fill="none" stroke="url(#mg)" stroke-width="1.8" stroke-linecap="round"/>
      <path d="M52 75.5 C54.5 71.5 58.5 71.8 60 73 C58.2 76.2 54.8 77.2 52 75.5 Z" fill="url(#mg)"/>
    </g>
  </g></g>
  </g>
</svg>
